<?xml version="1.0" standalone="no"?>
<!DOCTYPE svg PUBLIC "-//W3C//DTD SVG 20010904//EN"
 "http://www.w3.org/TR/2001/REC-SVG-20010904/DTD/svg10.dtd">
<svg version="1.0" xmlns="http://www.w3.org/2000/svg"
 width="256.000000pt" height="256.000000pt" viewBox="0 0 256.000000 256.000000"
 preserveAspectRatio="xMidYMid meet">

<g transform="translate(0.000000,256.000000) scale(0.100000,-0.100000)"
fill="#fa3263" stroke="none">
<path d="M303 2545 c-108 -29 -187 -87 -240 -176 -66 -110 -64 -77 -61 -1115
l3 -939 24 -58 c30 -77 93 -151 161 -193 109 -67 76 -65 1116 -62 l939 3 58
24 c77 30 151 93 193 161 67 109 65 76 62 1116 l-3 939 -24 58 c-47 118 -152
210 -276 242 -85 22 -1871 22 -1952 0z m1319 -909 c38 -82 67 -154 64 -160
-58 -145 -69 -154 134 99 84 105 160 196 169 203 19 15 113 16 129 0 7 -7 12
-19 12 -28 0 -9 -79 -114 -175 -234 l-175 -217 100 -214 c55 -117 100 -222
100 -232 0 -31 -21 -43 -75 -43 -37 0 -56 5 -67 18 -9 9 -46 82 -82 161 -37
79 -70 150 -75 159 -6 11 -38 -22 -132 -139 -167 -208 -156 -199 -227 -199
-60 0 -82 11 -82 41 0 10 81 117 181 239 l181 221 -13 32 c-35 88 -123 252
-155 287 -34 38 -130 92 -184 105 -22 5 -28 1 -43 -29 -25 -54 -54 -63 -212
-68 -117 -4 -148 -8 -190 -27 -107 -48 -154 -123 -186 -300 -36 -196 -19 -289
57 -326 32 -16 63 -19 164 -20 l124 0 13 75 c7 41 12 90 11 108 -3 29 -8 36
-41 47 -47 16 -71 37 -87 76 -24 56 -16 59 154 59 141 0 156 -2 165 -19 12
-22 -63 -443 -85 -478 -14 -23 -18 -23 -219 -23 -238 0 -283 10 -355 82 -88
88 -107 183 -75 383 44 282 141 429 324 492 64 22 75 23 425 20 l359 -2 69
-149z"/>
</g>
</svg>
