<?xml version="1.0" standalone="no"?>
<!DOCTYPE svg PUBLIC "-//W3C//DTD SVG 20010904//EN"
 "http://www.w3.org/TR/2001/REC-SVG-20010904/DTD/svg10.dtd">
<svg version="1.0" xmlns="http://www.w3.org/2000/svg"
 width="224.000000pt" height="224.000000pt" viewBox="0 0 224.000000 224.000000"
 preserveAspectRatio="xMidYMid meet">

<g transform="translate(0.000000,224.000000) scale(0.100000,-0.100000)"
fill="#fa3263" stroke="none">
<path d="M1020 2235 c-8 -2 -49 -9 -90 -15 -138 -22 -300 -87 -430 -171 -84
-55 -254 -225 -309 -309 -78 -120 -135 -256 -167 -400 -26 -113 -24 -338 4
-457 91 -397 365 -700 747 -826 574 -189 1194 117 1400 691 225 626 -158 1315
-813 1463 -78 17 -304 34 -342 24z m324 -106 c333 -79 605 -309 736 -624 50
-119 70 -229 70 -385 0 -155 -18 -253 -70 -388 -95 -247 -325 -477 -572 -572
-135 -52 -233 -70 -388 -70 -156 0 -266 20 -385 70 -318 132 -547 405 -625
743 -20 85 -22 115 -17 249 5 159 16 217 64 338 125 318 390 552 718 634 91
22 100 23 244 25 105 1 153 -4 225 -20z"/>
<path d="M1792 1590 c0 -14 2 -19 5 -12 2 6 2 18 0 25 -3 6 -5 1 -5 -13z"/>
<path d="M690 1520 c-113 -27 -214 -108 -268 -216 -70 -138 -102 -444 -55
-529 28 -53 78 -99 133 -124 40 -18 66 -21 241 -21 150 0 199 3 207 13 10 12
35 130 76 351 13 74 13 79 -5 97 -17 17 -34 19 -138 19 -66 0 -126 -3 -135 -6
-42 -16 4 -96 66 -116 52 -17 55 -29 35 -143 l-14 -80 -119 0 c-136 0 -172 13
-206 75 -17 30 -19 48 -14 125 9 173 53 305 118 360 67 57 110 68 263 71 137
2 140 3 162 29 13 14 23 33 23 41 0 11 6 14 23 9 40 -12 106 -55 143 -93 39
-40 159 -274 151 -295 -3 -7 -72 -94 -155 -194 -184 -221 -188 -228 -172 -248
10 -12 29 -15 74 -13 l60 3 127 155 c70 85 130 154 135 154 5 -1 41 -71 81
-155 l73 -154 62 0 c56 0 63 2 66 21 2 15 -151 361 -183 415 -4 5 55 80 236
302 49 60 89 114 89 121 0 23 -24 36 -66 36 -59 0 -47 12 -299 -298 -49 -61
-91 -107 -93 -103 -1 4 9 32 22 61 27 58 28 49 -19 155 -40 88 -61 131 -78
158 l-18 27 -297 -1 c-163 -1 -313 -5 -332 -9z"/>
</g>
</svg>
